<?xml version="1.0" encoding="UTF-8"?>
<svg version="1.1" xmlns="http://www.w3.org/2000/svg" width="256" height="256">
<path d="M0 0 C70.62 0 141.24 0 214 0 C214 26.73 214 53.46 214 81 C206.41 81 198.82 81 191 81 C190.98582031 78.08414063 190.97164062 75.16828125 190.95703125 72.1640625 C190.92633599 69.31092104 190.88726675 66.45800699 190.84741211 63.60498047 C190.82434809 61.63631347 190.80986387 59.66752511 190.80444336 57.69873047 C191.1992945 42.47416757 191.1992945 42.47416757 185 29 C181.37624815 25.69835942 177.92113042 24.20850686 173.08203125 23.84765625 C169.12180436 24.13742895 166.09743635 25.55117211 163 28 C159.26530776 32.60365529 156.92045528 37.21262718 156.79467773 43.19604492 C156.77473251 44.03668991 156.75478729 44.8773349 156.73423767 45.74345398 C156.71752518 46.64666885 156.70081268 47.54988373 156.68359375 48.48046875 C156.6524221 49.87245232 156.6524221 49.87245232 156.62062073 51.29255676 C156.55522677 54.2574624 156.49628738 57.22245672 156.4375 60.1875 C156.39430513 62.1972748 156.35069053 64.20704063 156.30664062 66.21679688 C156.19876571 71.14444167 156.09961668 76.07215361 156 81 C147.09 81 138.18 81 129 81 C128.96132813 76.483125 128.96132813 76.483125 128.921875 71.875 C128.88339638 68.93919772 128.83825487 66.00356763 128.79248047 63.06787109 C128.76435965 61.03703108 128.74310114 59.00608343 128.72900391 56.97509766 C128.70745102 54.04534145 128.66073778 51.11686735 128.609375 48.1875 C128.60753204 46.83857666 128.60753204 46.83857666 128.60565186 45.46240234 C128.43213781 37.89229806 126.43689221 32.66357985 121.3125 27.0625 C117.13659591 24.46240878 113.90381961 23.58512524 109 24 C104.4677972 25.29491509 101.66190155 27.21616922 98.625 30.8125 C95.32178578 37.29188173 94.68406341 43.30791627 94.5859375 50.43359375 C94.56657135 51.31153091 94.5472052 52.18946808 94.5272522 53.0940094 C94.46787262 55.8750767 94.42123883 58.65618633 94.375 61.4375 C94.33678184 63.33269951 94.29772792 65.22788236 94.2578125 67.12304688 C94.16064537 71.74860711 94.08074768 76.37400793 94 81 C85.09 81 76.18 81 67 81 C66.94392578 76.82537109 66.94392578 76.82537109 66.88671875 72.56640625 C66.84039559 69.84570841 66.78920134 67.12514229 66.73754883 64.40454102 C66.70446816 62.52604296 66.67638473 60.64744954 66.65356445 58.76879883 C66.61970614 56.05509111 66.56737785 53.34224424 66.51171875 50.62890625 C66.50532883 49.80040665 66.4989389 48.97190704 66.49235535 48.11830139 C66.32090911 41.18783493 64.8760101 35.08201659 61.25 29.125 C57.8315768 25.8964892 54.54151037 24.19342468 49.79296875 23.83203125 C44.57670328 24.07196169 41.40347259 25.63271237 37.5078125 29.0390625 C32.92147585 35.00367649 32.53956808 40.83059512 32.48828125 48.08984375 C32.47033005 49.03436905 32.45237885 49.97889435 32.43388367 50.95204163 C32.38001844 53.94715 32.34596142 56.94210119 32.3125 59.9375 C32.27930593 61.9772353 32.24481435 64.01694992 32.20898438 66.05664062 C32.12188027 71.03778007 32.06160837 76.01821998 32 81 C21.44 81 10.88 81 0 81 C0 54.27 0 27.54 0 0 Z " fill="#010101" transform="translate(20,175)"/>
<path d="M0 0 C0.92790848 -0.00571014 1.85581696 -0.01142029 2.81184387 -0.01730347 C4.32831764 -0.01898026 4.32831764 -0.01898026 5.87542725 -0.02069092 C7.48099739 -0.02813828 7.48099739 -0.02813828 9.1190033 -0.03573608 C12.66249229 -0.05034893 16.2059365 -0.05715851 19.74945068 -0.06268311 C22.21321616 -0.06843556 24.67698162 -0.07419328 27.14074707 -0.07995605 C32.30898243 -0.09046374 37.47720224 -0.09630784 42.64544678 -0.09979248 C49.26079299 -0.10527473 55.87593313 -0.12929824 62.49121475 -0.15776443 C67.58193559 -0.17640892 72.67260698 -0.1815974 77.76335907 -0.18312836 C80.20175045 -0.18615163 82.64014102 -0.19416912 85.07849884 -0.20731354 C88.49403963 -0.22441035 91.90907951 -0.22248454 95.324646 -0.21600342 C96.32753159 -0.2252182 97.33041718 -0.23443298 98.36369324 -0.243927 C107.38251768 -0.19044759 113.89572357 1.95744249 120.59710693 8.17169189 C128.79716723 17.33539564 127.95021125 29.16046119 127.53363037 40.70098877 C126.99652816 48.1964151 123.81871898 53.34034687 118.62835693 58.57012939 C111.39799143 63.5728952 104.78868799 64.72996178 96.1227417 64.67388916 C95.03533691 64.68250473 93.94793213 64.6911203 92.82757568 64.69999695 C89.25571456 64.72258183 85.68464279 64.71593127 82.11273193 64.70684814 C79.61606108 64.71208703 77.11939221 64.71836449 74.62272644 64.72563171 C68.73099764 64.73734985 62.8395487 64.72779312 56.94783968 64.71122736 C52.2642693 64.7002937 47.58115277 64.71240894 42.89764404 64.73736572 C36.41620684 64.77150285 29.93523459 64.78100726 23.45371819 64.7705822 C20.99186192 64.76976463 18.52999032 64.77659057 16.06817818 64.79135323 C12.61968938 64.80886386 9.17273272 64.79420013 5.7243042 64.77154541 C4.21449226 64.78908371 4.21449226 64.78908371 2.67417908 64.80697632 C-6.25843366 64.6881868 -13.2580052 61.83938978 -19.57867432 55.45294189 C-26.70145251 46.3814791 -26.57157487 35.17510322 -25.64117432 24.14044189 C-24.42070485 16.23790207 -21.00657077 9.52173163 -14.61383057 4.57012939 C-9.75406809 1.40268644 -5.82877859 0.02155277 0 0 Z M0.35882568 13.14044189 C0.35882568 17.10044189 0.35882568 21.06044189 0.35882568 25.14044189 C-3.27117432 24.81044189 -6.90117432 24.48044189 -10.64117432 24.14044189 C-10.64117432 27.77044189 -10.64117432 31.40044189 -10.64117432 35.14044189 C-7.01117432 35.14044189 -3.38117432 35.14044189 0.35882568 35.14044189 C0.35882568 38.77044189 0.35882568 42.40044189 0.35882568 46.14044189 C3.65882568 46.14044189 6.95882568 46.14044189 10.35882568 46.14044189 C10.35882568 42.51044189 10.35882568 38.88044189 10.35882568 35.14044189 C13.98882568 35.14044189 17.61882568 35.14044189 21.35882568 35.14044189 C21.35882568 31.51044189 21.35882568 27.88044189 21.35882568 24.14044189 C17.72882568 24.47044189 14.09882568 24.80044189 10.35882568 25.14044189 C10.35882568 21.18044189 10.35882568 17.22044189 10.35882568 13.14044189 C7.05882568 13.14044189 3.75882568 13.14044189 0.35882568 13.14044189 Z M92.35882568 16.14044189 C90.09042586 17.97309514 90.09042586 17.97309514 90.17132568 20.70294189 C90.08879246 23.08733913 90.08879246 23.08733913 91.35882568 24.14044189 C93.81692566 24.3905192 93.81692566 24.3905192 96.35882568 24.14044189 C97.01882568 23.48044189 97.67882568 22.82044189 98.35882568 22.14044189 C98.03841171 19.53763621 98.03841171 19.53763621 97.35882568 17.14044189 C94.96163136 16.46085587 94.96163136 16.46085587 92.35882568 16.14044189 Z M82.35882568 26.14044189 C81.69882568 26.80044189 81.03882568 27.46044189 80.35882568 28.14044189 C80.68081534 31.23971008 80.68081534 31.23971008 81.35882568 34.14044189 C83.7752835 34.30731637 83.7752835 34.30731637 86.35882568 34.14044189 C87.01882568 33.48044189 87.67882568 32.82044189 88.35882568 32.14044189 C88.03841171 29.53763621 88.03841171 29.53763621 87.35882568 27.14044189 C84.96163136 26.46085587 84.96163136 26.46085587 82.35882568 26.14044189 Z M101.35882568 26.14044189 C100.1604436 28.46898653 100.1604436 28.46898653 99.35882568 31.14044189 C100.34882568 32.62544189 100.34882568 32.62544189 101.35882568 34.14044189 C103.9009054 34.4738774 103.9009054 34.4738774 106.35882568 34.14044189 C107.71501067 33.01510085 107.71501067 33.01510085 107.42132568 30.07794189 C107.40070068 29.10856689 107.38007568 28.13919189 107.35882568 27.14044189 C104.38882568 26.64544189 104.38882568 26.64544189 101.35882568 26.14044189 Z M90.35882568 37.14044189 C90.31801785 39.14002553 90.31628212 41.14089443 90.35882568 43.14044189 C93.32882568 43.63544189 93.32882568 43.63544189 96.35882568 44.14044189 C97.55720777 41.81189726 97.55720777 41.81189726 98.35882568 39.14044189 C97.69882568 38.15044189 97.03882568 37.16044189 96.35882568 36.14044189 C93.06970424 35.64903059 93.06970424 35.64903059 90.35882568 37.14044189 Z M33.35882568 42.14044189 C33.35882568 42.80044189 33.35882568 43.46044189 33.35882568 44.14044189 C35.99882568 44.14044189 38.63882568 44.14044189 41.35882568 44.14044189 C41.35882568 43.48044189 41.35882568 42.82044189 41.35882568 42.14044189 C38.71882568 42.14044189 36.07882568 42.14044189 33.35882568 42.14044189 Z M58.35882568 42.14044189 C58.35882568 42.80044189 58.35882568 43.46044189 58.35882568 44.14044189 C60.99882568 44.14044189 63.63882568 44.14044189 66.35882568 44.14044189 C66.35882568 43.48044189 66.35882568 42.82044189 66.35882568 42.14044189 C63.71882568 42.14044189 61.07882568 42.14044189 58.35882568 42.14044189 Z " fill="#030303" transform="translate(76.64117431640625,15.85955810546875)"/>
<path d="M0 0 C0.96063809 -0.00155999 1.92127618 -0.00311998 2.91102451 -0.00472724 C6.15008451 -0.0087358 9.38909816 -0.00554815 12.62815857 -0.00241089 C14.94207283 -0.00376498 17.25598688 -0.00554496 19.56990051 -0.00772095 C25.86924046 -0.01229404 32.16856409 -0.01050629 38.46790433 -0.00734186 C45.04581323 -0.00481793 51.62372069 -0.00715586 58.20162964 -0.00872803 C69.95740534 -0.01086657 81.71317415 -0.0075503 93.46894865 -0.00246869 C104.13807049 0.00200032 114.80718146 0.00122244 125.4763031 -0.00338745 C137.85394372 -0.00873302 150.2315774 -0.01073423 162.60921901 -0.00777519 C169.16583864 -0.00621205 175.72245075 -0.00601966 182.2790699 -0.00931168 C188.44067129 -0.01218904 194.60225202 -0.01021719 200.76385117 -0.00441742 C203.0323006 -0.00308915 205.30075176 -0.00348505 207.56920052 -0.00568008 C210.65162632 -0.00838895 213.7339848 -0.00501372 216.81640625 0 C218.1815499 -0.00334608 218.1815499 -0.00334608 219.57427222 -0.00675976 C225.7305614 0.01283374 225.7305614 0.01283374 226.8447113 1.12698364 C226.94458105 3.97033412 226.98349012 6.78395527 226.9697113 9.62698364 C226.97357849 10.42491333 226.97744568 11.22284302 226.98143005 12.04495239 C226.97131898 18.00037597 226.97131898 18.00037597 225.8447113 19.12698364 C222.82783461 19.22721938 219.83377215 19.2613631 216.81640625 19.25396729 C215.85732815 19.25552728 214.89825005 19.25708727 213.91010898 19.25869453 C210.67027692 19.26270901 207.43049105 19.25951315 204.19065857 19.25637817 C201.87851433 19.25773203 199.5663703 19.25951187 197.25422668 19.26168823 C190.95476039 19.26626474 184.65531038 19.26447205 178.35584378 19.26130915 C171.77839694 19.25878636 165.20095154 19.26112288 158.62350464 19.26269531 C146.8656425 19.26483463 135.10778724 19.26151629 123.34992629 19.25643598 C112.6811107 19.25196897 102.01230599 19.25274298 91.3434906 19.25735474 C78.96731256 19.26270199 66.59114146 19.26470046 54.21496242 19.26174247 C47.65885496 19.26017983 41.10275501 19.25998555 34.54664803 19.26327896 C28.38341523 19.26615843 22.22020306 19.26418055 16.0569725 19.2583847 C13.78894396 19.25705746 11.52091369 19.25745062 9.25288582 19.25964737 C6.16856675 19.26236029 3.08431474 19.25897594 0 19.25396729 C-0.90786505 19.25619801 -1.81573009 19.25842873 -2.7511062 19.26072705 C-8.92698889 19.24113354 -8.92698889 19.24113354 -11.1552887 18.12698364 C-11.1552887 12.51698364 -11.1552887 6.90698364 -11.1552887 1.12698364 C-7.72307571 -0.58912285 -3.77678669 -0.00927997 0 0 Z " fill="#000000" transform="translate(19.155288696289063,150.87301635742188)"/>
<path d="M0 0 C0.81448229 0.00514356 1.62896458 0.01028713 2.46812814 0.01558656 C3.33076098 0.01317214 4.19339381 0.01075772 5.08216703 0.00827014 C7.98961851 0.00260806 10.89685272 0.01131511 13.80429453 0.01990479 C15.88175892 0.01883254 17.95922302 0.01689471 20.03668588 0.01415223 C25.69144229 0.00929196 31.34612016 0.01697405 37.00086707 0.02710527 C42.90612145 0.03586543 48.81137323 0.03412873 54.71663278 0.03374451 C64.63405039 0.03468201 74.55143746 0.04337789 84.46884531 0.05701417 C95.95231564 0.07274491 107.43575252 0.07801217 118.91923285 0.07727861 C129.94501618 0.07666929 140.97078857 0.08176568 151.99656862 0.09007043 C156.69872428 0.09361068 161.40087607 0.09543473 166.10303301 0.09596413 C171.63428349 0.09696512 177.16550563 0.10304162 182.69674677 0.11313027 C184.73298653 0.11606305 186.76922956 0.11727908 188.80547136 0.11670274 C191.57261152 0.1162157 194.33967104 0.12183139 197.10680002 0.12911195 C198.33186953 0.12678904 198.33186953 0.12678904 199.58168793 0.12441921 C205.10979371 0.14864616 205.10979371 0.14864616 206.22397226 1.26282471 C206.37552195 3.40492131 206.44574971 5.55305933 206.47397226 7.70032471 C206.51264414 9.46182862 206.51264414 9.46182862 206.55209726 11.25891846 C206.38967539 12.74585206 206.38967539 12.74585206 206.22397226 14.26282471 C202.4240358 16.79611569 199.38917695 16.54435633 194.98691171 16.52352113 C193.71217351 16.52925945 193.71217351 16.52925945 192.41168302 16.53511369 C189.5534776 16.54546317 186.69547234 16.54144788 183.83725351 16.53748292 C181.79244163 16.54182828 179.74763139 16.54701083 177.70282358 16.55297059 C172.14097543 16.56638981 166.57919511 16.56693608 161.01733392 16.56440729 C156.37983805 16.5633397 151.74235602 16.56821543 147.10486311 16.57301271 C136.1683187 16.58411771 125.23180864 16.58453952 114.29526132 16.57849854 C102.99865344 16.57245482 91.70216998 16.58477764 80.40558332 16.60606861 C70.71807458 16.62365807 61.03060554 16.62969023 51.34308141 16.62643087 C45.55209275 16.62461385 39.76119286 16.62729593 33.9702186 16.64114541 C28.52671825 16.65367624 23.0834126 16.65182482 17.63991541 16.63873452 C15.63837616 16.63635892 13.63682341 16.63913836 11.63529962 16.64735764 C8.91031475 16.6577438 6.18599308 16.64979043 3.46103281 16.63704652 C2.66250045 16.6444208 1.86396808 16.65179509 1.04123777 16.65939283 C-4.27176758 16.60684719 -4.27176758 16.60684719 -6.76813895 14.90374249 C-8.25583896 12.48165642 -8.1372596 10.5155268 -8.08852774 7.70032471 C-8.08466055 6.72966065 -8.08079336 5.75899659 -8.07680899 4.75891846 C-7.45979002 -0.36153765 -4.46065499 0.02778264 0 0 Z " fill="#000000" transform="translate(27.776027739048004,132.7371752858162)"/>
<path d="M0 0 C24.62526687 -0.02332609 49.25053209 -0.04097774 73.87580776 -0.05181217 C85.30889187 -0.05697575 96.74196912 -0.06401961 108.17504883 -0.07543945 C118.13626026 -0.08538441 128.09746672 -0.09185298 138.05868298 -0.09408849 C143.33654174 -0.09539592 148.6143863 -0.09848379 153.89224052 -0.10573006 C158.85383884 -0.11248731 163.81541703 -0.11461757 168.7770195 -0.11310768 C170.603628 -0.11338414 172.43023713 -0.11539101 174.25684166 -0.11920547 C176.73944452 -0.12413813 179.22197015 -0.12299989 181.70457458 -0.12025452 C182.43705097 -0.12316736 183.16952736 -0.1260802 183.9242 -0.12908131 C188.88587879 -0.11412121 188.88587879 -0.11412121 190 1 C190.0989294 3.16480797 190.129711 5.33293785 190.125 7.5 C190.12757813 8.6859375 190.13015625 9.871875 190.1328125 11.09375 C190 14 190 14 189 15 C186.5588998 15.09769053 184.14612708 15.12996385 181.70457458 15.12025452 C180.93192876 15.12110894 180.15928294 15.12196337 179.36322361 15.12284368 C176.75441446 15.12450082 174.14566854 15.11897331 171.53686523 15.11352539 C169.67467246 15.11324354 167.81247957 15.1134012 165.95028687 15.1139679 C160.87818414 15.11425597 155.80610485 15.10835771 150.7340076 15.10139394 C145.43953999 15.09516197 140.1450719 15.09455673 134.8506012 15.09336853 C124.81728576 15.09025475 114.78398115 15.08204073 104.75067049 15.07201904 C93.33127715 15.06085935 81.91188331 15.05534782 70.49248588 15.05032361 C46.99498457 15.03985815 23.49749289 15.02225781 0 15 C-1.30459914 12.39080172 -1.1326594 10.41057385 -1.125 7.5 C-1.12757812 6.5203125 -1.13015625 5.540625 -1.1328125 4.53125 C-1 2 -1 2 0 0 Z " fill="#000000" transform="translate(33,115)"/>
<path d="M0 0 C0.66 0 1.32 0 2 0 C3.81738462 3.60994159 5.63207259 7.22122483 7.44433594 10.83374023 C8.06046845 12.06099475 8.67732038 13.28788837 9.29492188 14.5144043 C10.18551327 16.28337737 11.07325455 18.05378442 11.9609375 19.82421875 C12.49509277 20.88729248 13.02924805 21.95036621 13.57958984 23.0456543 C17.32974166 30.84568646 18.74409617 37.74206302 15.9375 46.203125 C12.16389576 54.36559504 7.43930905 59.19145754 -0.0625 63.9375 C-7.53852776 66.66384957 -17.22792667 66.28783544 -24.4375 63.0625 C-32.8606202 58.08138573 -38.59113522 50.07938022 -42 41 C-42 40.01 -42 39.02 -42 38 C-40.09927734 37.94392578 -40.09927734 37.94392578 -38.16015625 37.88671875 C-36.46091069 37.82100207 -34.7616932 37.75455677 -33.0625 37.6875 C-32.23169922 37.66494141 -31.40089844 37.64238281 -30.54492188 37.61914062 C-20.98307144 37.20987854 -13.89849258 34.93800328 -6.94921875 28.20703125 C0.22955042 20.07876555 -0.23685568 10.31506505 0 0 Z " fill="#020202" transform="translate(206,45)"/>
<path d="M0 0 C0.66 0 1.32 0 2 0 C2.02578125 1.05058594 2.0515625 2.10117187 2.078125 3.18359375 C2.46137568 13.94153014 3.76611696 22.26667871 11.2890625 30.49609375 C16.56344128 35.13224862 22.86934025 37.00695758 29.765625 37.31640625 C30.65507813 37.35830078 31.54453125 37.40019531 32.4609375 37.44335938 C33.84152344 37.50233398 33.84152344 37.50233398 35.25 37.5625 C36.18585938 37.60568359 37.12171875 37.64886719 38.0859375 37.69335938 C40.39048641 37.7991805 42.69513839 37.90126557 45 38 C34.85163587 59.95736966 34.85163587 59.95736966 23.71484375 64.3359375 C15.00559791 66.46625663 5.96552076 66.21929176 -1.84765625 61.6171875 C-8.68598165 56.47913538 -12.97942909 50.41687636 -14.55859375 42.03515625 C-15.66594542 29.6628938 -9.89309182 20.14562284 -4.27880859 9.4921875 C-2.684184 6.38452658 -1.31609341 3.23408619 0 0 Z " fill="#020202" transform="translate(47,45)"/>
<path d="M0 0 C1.12591553 0.00523682 2.25183105 0.01047363 3.41186523 0.01586914 C4.62680664 0.0190918 5.84174805 0.02231445 7.09350586 0.02563477 C8.37290039 0.03401367 9.65229492 0.04239258 10.97045898 0.05102539 C12.2537207 0.05553711 13.53698242 0.06004883 14.85913086 0.06469727 C18.04211921 0.07652994 21.22501661 0.09301471 24.40795898 0.11352539 C27.07907998 4.6063509 28.89001274 7.80457639 29.40795898 13.11352539 C28.74795898 13.11352539 28.08795898 13.11352539 27.40795898 13.11352539 C26.82014648 12.46383789 26.82014648 12.46383789 26.22045898 11.80102539 C19.84626156 5.86642779 11.22867042 5.96757492 3.09545898 6.05102539 C1.84152344 6.05779297 1.84152344 6.05779297 0.56225586 6.06469727 C-1.48920751 6.07641991 -3.54063374 6.09435336 -5.59204102 6.11352539 C-3.29621063 0.14436639 -3.29621063 0.14436639 0 0 Z " fill="#0B0B0B" transform="translate(168.592041015625,7.886474609375)"/>
<path d="M0 0 C1.04921631 0.0007251 2.09843262 0.0014502 3.17944336 0.00219727 C4.899375 -0.00070313 4.899375 -0.00070313 6.65405273 -0.00366211 C8.44359375 0.03210938 8.44359375 0.03210938 10.26928711 0.06860352 C11.46618164 0.05764648 12.66307617 0.04668945 13.89624023 0.03540039 C20.51090907 0.09123609 20.51090907 0.09123609 23.20678711 0.63110352 C25.216573 2.68982516 26.20678711 3.72309327 26.20678711 6.63110352 C25.02342773 6.59629883 23.84006836 6.56149414 22.62084961 6.52563477 C6.73671509 6.07790053 6.73671509 6.07790053 -6.79321289 13.63110352 C-7.45321289 13.63110352 -8.11321289 13.63110352 -8.79321289 13.63110352 C-6.31079289 1.42587183 -6.31079289 1.42587183 0 0 Z " fill="#0C0C0C" transform="translate(65.793212890625,7.368896484375)"/>
<path d="M0 0 C10.89 0 21.78 0 33 0 C33 0.33 33 0.66 33 1 C22.11 1 11.22 1 0 1 C0 0.67 0 0.34 0 0 Z " fill="#FFFFFF" transform="translate(177,255)"/>
<path d="M0 0 C10.89 0 21.78 0 33 0 C33 0.33 33 0.66 33 1 C22.11 1 11.22 1 0 1 C0 0.67 0 0.34 0 0 Z " fill="#FFFFFF" transform="translate(115,255)"/>
<path d="M0 0 C10.89 0 21.78 0 33 0 C33 0.33 33 0.66 33 1 C22.11 1 11.22 1 0 1 C0 0.67 0 0.34 0 0 Z " fill="#FFFFFF" transform="translate(53,255)"/>
</svg>
