<svg xmlns="http://www.w3.org/2000/svg" width="26" height="24" viewBox="0 0 26 24" fill="none" stroke="currentColor" stroke-width="2" stroke-linecap="round" stroke-linejoin="round">
  <rect x="11" y="2" width="13" height="13" rx="2" ry="2"></rect>
  <!-- <path d="M5 15H4a2 2 0 0 1-2-2V4a2 2 0 0 1 2-2h9a2 2 0 0 1 2 2v1"></path> -->
  <path d="M8 9H7a2 2 0 0 0-2 2v9a2 2 0 0 0 2 2h9a2 2 0 0 0 2-2v-1"></path>
  <line x1="17.5" y1="5.5" x2="17.5" y2="11.5"></line>
  <line x1="14.5" y1="8.5" x2="20.5" y2="8.5"></line>
</svg>