<svg xmlns="http://www.w3.org/2000/svg" viewBox="0 0 56.54 53.8"><defs><style>.cls-1,.cls-2{fill:#eee;}.cls-1{fill-rule:evenodd;}</style></defs><title>Asset 1</title><g id="Layer_2" data-name="Layer 2"><g id="GOG.com_-_vertical" data-name="GOG.com - vertical"><path class="cls-1" d="M16.85,34.54H10.27a.93.93,0,0,0-.93.93h0v4.69h0a.93.93,0,0,0,.93.94h6.58v3.13H8.64a2.43,2.43,0,0,1-2.43-2.43v-8a2.42,2.42,0,0,1,2.43-2.42h8.21Z"/><path class="cls-1" d="M19.22,25.83a2.46,2.46,0,0,1-2.46,2.46H6.2V25.12h8.9a1,1,0,0,0,.94-.95h0V13.69h0a.94.94,0,0,0-.94-.95H10.32a.94.94,0,0,0-.94.95h0v4.76h0a1,1,0,0,0,.94.95h3.82v3.17H8.66A2.46,2.46,0,0,1,6.2,20.11V12A2.46,2.46,0,0,1,8.66,9.56h8.1A2.46,2.46,0,0,1,19.22,12Z"/><path class="cls-1" d="M50.33,44.24H47.2v-9.7H45a.93.93,0,0,0-.93.93h0v8.76H40.94v-9.7h-2.2a.93.93,0,0,0-.93.93h0v8.77H34.68V33.83a2.42,2.42,0,0,1,2.43-2.42H50.33Z"/><path class="cls-1" d="M50.34,25.83a2.46,2.46,0,0,1-2.46,2.46H37.32V25.12h8.9a1,1,0,0,0,.95-.95h0V13.69h0a1,1,0,0,0-.95-.95H41.43a1,1,0,0,0-.94.95h0v4.76h0a1,1,0,0,0,.94.95h3.82v3.17H39.78a2.46,2.46,0,0,1-2.46-2.46V12a2.46,2.46,0,0,1,2.46-2.46h8.09A2.46,2.46,0,0,1,50.34,12Z"/><path class="cls-1" d="M32.32,9.56h-8.1A2.46,2.46,0,0,0,21.76,12v8.09a2.46,2.46,0,0,0,2.46,2.46h8.1a2.46,2.46,0,0,0,2.46-2.46V12A2.46,2.46,0,0,0,32.32,9.56Zm-.72,4.13v4.76h0a.94.94,0,0,1-.94.95H25.88a1,1,0,0,1-.95-.95h0V13.69h0a.94.94,0,0,1,.95-.95h4.78a.94.94,0,0,1,.94.95Z"/><path class="cls-1" d="M29.75,31.42h-8a2.42,2.42,0,0,0-2.43,2.42v8a2.42,2.42,0,0,0,2.43,2.43h8a2.43,2.43,0,0,0,2.42-2.43v-8A2.42,2.42,0,0,0,29.75,31.42Zm-.7,4.07v4.69a.93.93,0,0,1-.93.94H23.41a.93.93,0,0,1-.93-.94V35.48h0a.93.93,0,0,1,.93-.93h4.71a.93.93,0,0,1,.93.93Z"/><path class="cls-2" d="M55.33,1.2A4.1,4.1,0,0,0,52.43,0H4.11A4.11,4.11,0,0,0,0,4.11V49.69A4.11,4.11,0,0,0,4.11,53.8H52.43a4.11,4.11,0,0,0,4.11-4.11V4.11A4.1,4.1,0,0,0,55.33,1.2Zm0,48.48a2.91,2.91,0,0,1-2.91,2.91H4.11A2.91,2.91,0,0,1,1.2,49.69V4.11A2.91,2.91,0,0,1,4.11,1.2H52.43a2.91,2.91,0,0,1,2.91,2.91Z"/></g></g></svg>